<svg width="22.000000" height="21.960938" viewBox="0 0 22 21.9609" fill="none" xmlns="http://www.w3.org/2000/svg" xmlns:xlink="http://www.w3.org/1999/xlink">
	<desc>
			Created with Pixso.
	</desc>
	<defs/>
	<path id="Vector" d="M14.07 3.38C13.78 3.1 13.56 2.88 13.34 2.67C12.91 2.25 12.44 2.25 12.02 2.68C10.77 3.92 9.53 5.17 8.28 6.42C8.09 6.61 7.88 6.75 7.59 6.74C7.25 6.73 7 6.57 6.85 6.27C6.7 5.97 6.72 5.67 6.91 5.4C6.97 5.31 7.05 5.24 7.13 5.16C8.34 3.95 9.56 2.74 10.77 1.53C11.9 0.4 13.46 0.4 14.58 1.52C14.79 1.73 14.98 1.94 15.2 2.18C15.66 1.72 16.08 1.29 16.51 0.86C16.91 0.46 17.39 0.19 17.95 0.07C18.94 -0.14 19.82 0.08 20.57 0.75C20.87 1.02 21.16 1.3 21.4 1.61C22.28 2.75 22.17 4.35 21.15 5.4C20.43 6.12 19.7 6.84 18.98 7.56C15.41 11.13 11.84 14.7 8.27 18.27C8.18 18.36 8.08 18.45 7.96 18.5C5.74 19.61 3.52 20.71 1.3 21.82C0.87 22.03 0.53 22 0.24 21.71C-0.04 21.42 -0.08 21.06 0.13 20.64C1.17 18.56 2.22 16.48 3.25 14.39C3.44 14 3.68 13.68 3.98 13.38C7.25 10.12 10.51 6.85 13.78 3.59C13.85 3.52 13.95 3.47 14.07 3.38ZM5.52 14.32C6.21 15.02 6.94 15.74 7.62 16.43C10.85 13.2 14.09 9.95 17.33 6.72C16.64 6.03 15.92 5.31 15.21 4.61C11.98 7.85 8.74 11.1 5.52 14.32ZM18.62 5.5C19.07 5.05 19.55 4.6 19.99 4.13C20.34 3.76 20.43 3.21 20.14 2.81C19.87 2.44 19.52 2.09 19.14 1.83C18.74 1.55 18.25 1.6 17.89 1.93C17.39 2.38 16.94 2.89 16.49 3.37C17.18 4.06 17.89 4.77 18.62 5.5ZM4.42 15.85C3.89 16.92 3.35 18.03 2.81 19.13C2.82 19.14 2.84 19.15 2.85 19.16C3.95 18.62 5.05 18.09 6.13 17.55C5.55 16.98 4.99 16.42 4.42 15.85Z" fill="#FFFFFF" fill-opacity="1.000000" fill-rule="nonzero"/>
</svg>
