<svg width="22.000000" height="22.000000" viewBox="0 0 22 22" fill="none" xmlns="http://www.w3.org/2000/svg" xmlns:xlink="http://www.w3.org/1999/xlink">
	<desc>
			Created with Pixso.
	</desc>
	<defs/>
	<path id="Union" d="M8 16L8 22L14 16L18 16C20.2 16 22 14.2 22 12L22 4C22 1.79 20.2 0 18 0L4 0C1.79 0 0 1.79 0 4L0 12C0 14.2 1.79 16 4 16L8 16ZM10 17.17L10 14L4 14C2.89 14 2 13.1 2 12L2 4C2 2.89 2.89 2 4 2L18 2C19.1 2 20 2.89 20 4L20 12C20 13.1 19.1 14 18 14L13.17 14L10 17.17ZM9.5 8C9.5 8.82 8.82 9.5 8 9.5C7.17 9.5 6.5 8.82 6.5 8C6.5 7.17 7.17 6.5 8 6.5C8.82 6.5 9.5 7.17 9.5 8ZM14 9.5C14.82 9.5 15.5 8.82 15.5 8C15.5 7.17 14.82 6.5 14 6.5C13.17 6.5 12.5 7.17 12.5 8C12.5 8.82 13.17 9.5 14 9.5Z" fill="#2770F1" fill-opacity="1.000000" fill-rule="evenodd"/>
</svg>
